<?xml version="1.0" encoding="UTF-8" standalone="no"?>
<!DOCTYPE svg PUBLIC "-//W3C//DTD SVG 1.1//EN"
 "http://www.w3.org/Graphics/SVG/1.1/DTD/svg11.dtd">
<!-- Generated by graphviz version 2.26.0 (20091210.2329)
 -->
<!-- Title: G Pages: 1 -->
<svg width="458pt" height="416pt"
 viewBox="0.00 0.00 458.00 416.00" xmlns="http://www.w3.org/2000/svg" xmlns:xlink="http://www.w3.org/1999/xlink">
<g id="graph1" class="graph" transform="scale(1 1) rotate(0) translate(4 412)">
<title>G</title>
<polygon fill="white" stroke="white" points="-4,5 -4,-412 455,-412 455,5 -4,5"/>
<!-- level_0_val_0 -->
<g id="node1" class="node"><title>level_0_val_0</title>
<ellipse fill="none" stroke="black" cx="153" cy="-389" rx="27" ry="19.0919"/>
<text text-anchor="middle" x="153" y="-385.9" font-family="Times Roman,serif" font-size="14.00">6,3</text>
</g>
<!-- level_1_val_0 -->
<g id="node2" class="node"><title>level_1_val_0</title>
<ellipse fill="none" stroke="black" cx="117" cy="-315" rx="27" ry="19.0919"/>
<text text-anchor="middle" x="117" y="-311.9" font-family="Times Roman,serif" font-size="14.00">5,2</text>
</g>
<!-- level_0_val_0&#45;&gt;level_1_val_0 -->
<g id="edge3" class="edge"><title>level_0_val_0&#45;&gt;level_1_val_0</title>
<path fill="none" stroke="black" d="M144.101,-370.708C139.916,-362.105 134.84,-351.671 130.218,-342.17"/>
<polygon fill="black" stroke="black" points="133.319,-340.543 125.797,-333.082 127.024,-343.605 133.319,-340.543"/>
</g>
<!-- level_1_val_1 -->
<g id="node4" class="node"><title>level_1_val_1</title>
<ellipse fill="none" stroke="black" cx="189" cy="-315" rx="27" ry="19.0919"/>
<text text-anchor="middle" x="189" y="-311.9" font-family="Times Roman,serif" font-size="14.00">5,3</text>
</g>
<!-- level_0_val_0&#45;&gt;level_1_val_1 -->
<g id="edge4" class="edge"><title>level_0_val_0&#45;&gt;level_1_val_1</title>
<path fill="none" stroke="black" d="M161.899,-370.708C166.084,-362.105 171.16,-351.671 175.782,-342.17"/>
<polygon fill="black" stroke="black" points="178.976,-343.605 180.203,-333.082 172.681,-340.543 178.976,-343.605"/>
</g>
<!-- null_level_2_val_0 -->
<g id="node3" class="node"><title>null_level_2_val_0</title>
<ellipse fill="none" stroke="black" cx="45" cy="-241" rx="27" ry="19.0919"/>
<text text-anchor="middle" x="45" y="-237.9" font-family="Times Roman,serif" font-size="14.00">null</text>
</g>
<!-- level_1_val_0&#45;&gt;null_level_2_val_0 -->
<g id="edge7" class="edge"><title>level_1_val_0&#45;&gt;null_level_2_val_0</title>
<path fill="none" stroke="black" d="M101.731,-299.307C91.7753,-289.075 78.6114,-275.545 67.4705,-264.095"/>
<polygon fill="black" stroke="black" points="69.9777,-261.653 60.4956,-256.926 64.9606,-266.534 69.9777,-261.653"/>
</g>
<!-- level_2_val_0 -->
<g id="node5" class="node"><title>level_2_val_0</title>
<ellipse fill="none" stroke="black" cx="117" cy="-241" rx="27" ry="19.0919"/>
<text text-anchor="middle" x="117" y="-237.9" font-family="Times Roman,serif" font-size="14.00">4,2</text>
</g>
<!-- level_1_val_0&#45;&gt;level_2_val_0 -->
<g id="edge8" class="edge"><title>level_1_val_0&#45;&gt;level_2_val_0</title>
<path fill="none" stroke="black" d="M117,-295.943C117,-288.149 117,-278.954 117,-270.338"/>
<polygon fill="black" stroke="black" points="120.5,-270.249 117,-260.249 113.5,-270.249 120.5,-270.249"/>
</g>
<!-- level_2_val_1 -->
<g id="node7" class="node"><title>level_2_val_1</title>
<ellipse fill="none" stroke="black" cx="189" cy="-241" rx="27" ry="19.0919"/>
<text text-anchor="middle" x="189" y="-237.9" font-family="Times Roman,serif" font-size="14.00">4,2</text>
</g>
<!-- level_1_val_1&#45;&gt;level_2_val_1 -->
<g id="edge11" class="edge"><title>level_1_val_1&#45;&gt;level_2_val_1</title>
<path fill="none" stroke="black" d="M189,-295.943C189,-288.149 189,-278.954 189,-270.338"/>
<polygon fill="black" stroke="black" points="192.5,-270.249 189,-260.249 185.5,-270.249 192.5,-270.249"/>
</g>
<!-- level_2_val_2 -->
<g id="node8" class="node"><title>level_2_val_2</title>
<ellipse fill="none" stroke="black" cx="261" cy="-241" rx="27" ry="19.0919"/>
<text text-anchor="middle" x="261" y="-237.9" font-family="Times Roman,serif" font-size="14.00">4,3</text>
</g>
<!-- level_1_val_1&#45;&gt;level_2_val_2 -->
<g id="edge12" class="edge"><title>level_1_val_1&#45;&gt;level_2_val_2</title>
<path fill="none" stroke="black" d="M204.269,-299.307C214.225,-289.075 227.389,-275.545 238.529,-264.095"/>
<polygon fill="black" stroke="black" points="241.039,-266.534 245.504,-256.926 236.022,-261.653 241.039,-266.534"/>
</g>
<!-- null_level_3_val_0 -->
<g id="node6" class="node"><title>null_level_3_val_0</title>
<ellipse fill="none" stroke="black" cx="81" cy="-167" rx="27" ry="19.0919"/>
<text text-anchor="middle" x="81" y="-163.9" font-family="Times Roman,serif" font-size="14.00">null</text>
</g>
<!-- level_2_val_0&#45;&gt;null_level_3_val_0 -->
<g id="edge15" class="edge"><title>level_2_val_0&#45;&gt;null_level_3_val_0</title>
<path fill="none" stroke="black" d="M108.101,-222.708C103.916,-214.105 98.8401,-203.671 94.2178,-194.17"/>
<polygon fill="black" stroke="black" points="97.3186,-192.543 89.7965,-185.082 91.0239,-195.605 97.3186,-192.543"/>
</g>
<!-- level_3_val_0 -->
<g id="node9" class="node"><title>level_3_val_0</title>
<ellipse fill="none" stroke="black" cx="153" cy="-167" rx="27" ry="19.0919"/>
<text text-anchor="middle" x="153" y="-163.9" font-family="Times Roman,serif" font-size="14.00">3,2</text>
</g>
<!-- level_2_val_0&#45;&gt;level_3_val_0 -->
<g id="edge16" class="edge"><title>level_2_val_0&#45;&gt;level_3_val_0</title>
<path fill="none" stroke="black" d="M125.899,-222.708C130.084,-214.105 135.16,-203.671 139.782,-194.17"/>
<polygon fill="black" stroke="black" points="142.976,-195.605 144.203,-185.082 136.681,-192.543 142.976,-195.605"/>
</g>
<!-- level_3_val_1 -->
<g id="node10" class="node"><title>level_3_val_1</title>
<ellipse fill="none" stroke="black" cx="225" cy="-167" rx="27" ry="19.0919"/>
<text text-anchor="middle" x="225" y="-163.9" font-family="Times Roman,serif" font-size="14.00">3,2</text>
</g>
<!-- level_2_val_2&#45;&gt;level_3_val_1 -->
<g id="edge19" class="edge"><title>level_2_val_2&#45;&gt;level_3_val_1</title>
<path fill="none" stroke="black" d="M252.101,-222.708C247.916,-214.105 242.84,-203.671 238.218,-194.17"/>
<polygon fill="black" stroke="black" points="241.319,-192.543 233.797,-185.082 235.024,-195.605 241.319,-192.543"/>
</g>
<!-- level_3_val_2 -->
<g id="node11" class="node"><title>level_3_val_2</title>
<ellipse fill="none" stroke="black" cx="297" cy="-167" rx="27" ry="19.0919"/>
<text text-anchor="middle" x="297" y="-163.9" font-family="Times Roman,serif" font-size="14.00">3,3</text>
</g>
<!-- level_2_val_2&#45;&gt;level_3_val_2 -->
<g id="edge20" class="edge"><title>level_2_val_2&#45;&gt;level_3_val_2</title>
<path fill="none" stroke="black" d="M269.899,-222.708C274.084,-214.105 279.16,-203.671 283.782,-194.17"/>
<polygon fill="black" stroke="black" points="286.976,-195.605 288.203,-185.082 280.681,-192.543 286.976,-195.605"/>
</g>
<!-- level_4_val_0 -->
<g id="node13" class="node"><title>level_4_val_0</title>
<ellipse fill="none" stroke="black" cx="99" cy="-93" rx="27" ry="19.0919"/>
<text text-anchor="middle" x="99" y="-89.9" font-family="Times Roman,serif" font-size="14.00">2,1</text>
</g>
<!-- level_3_val_0&#45;&gt;level_4_val_0 -->
<g id="edge23" class="edge"><title>level_3_val_0&#45;&gt;level_4_val_0</title>
<path fill="none" stroke="black" d="M140.476,-149.837C133.66,-140.497 125.097,-128.763 117.525,-118.386"/>
<polygon fill="black" stroke="black" points="120.178,-116.085 111.456,-110.07 114.524,-120.211 120.178,-116.085"/>
</g>
<!-- level_4_val_1 -->
<g id="node14" class="node"><title>level_4_val_1</title>
<ellipse fill="none" stroke="black" cx="171" cy="-93" rx="27" ry="19.0919"/>
<text text-anchor="middle" x="171" y="-89.9" font-family="Times Roman,serif" font-size="14.00">2,2</text>
</g>
<!-- level_3_val_0&#45;&gt;level_4_val_1 -->
<g id="edge24" class="edge"><title>level_3_val_0&#45;&gt;level_4_val_1</title>
<path fill="none" stroke="black" d="M157.635,-147.943C159.582,-139.941 161.888,-130.46 164.032,-121.647"/>
<polygon fill="black" stroke="black" points="167.48,-122.28 166.443,-111.736 160.678,-120.626 167.48,-122.28"/>
</g>
<!-- null_level_4_val_0 -->
<g id="node12" class="node"><title>null_level_4_val_0</title>
<ellipse fill="none" stroke="black" cx="288" cy="-93" rx="27" ry="19.0919"/>
<text text-anchor="middle" x="288" y="-89.9" font-family="Times Roman,serif" font-size="14.00">null</text>
</g>
<!-- level_3_val_2&#45;&gt;null_level_4_val_0 -->
<g id="edge27" class="edge"><title>level_3_val_2&#45;&gt;null_level_4_val_0</title>
<path fill="none" stroke="black" d="M294.682,-147.943C293.727,-140.088 292.599,-130.81 291.544,-122.136"/>
<polygon fill="black" stroke="black" points="294.992,-121.497 290.31,-111.992 288.043,-122.342 294.992,-121.497"/>
</g>
<!-- level_4_val_2 -->
<g id="node16" class="node"><title>level_4_val_2</title>
<ellipse fill="none" stroke="black" cx="360" cy="-93" rx="27" ry="19.0919"/>
<text text-anchor="middle" x="360" y="-89.9" font-family="Times Roman,serif" font-size="14.00">2,3</text>
</g>
<!-- level_3_val_2&#45;&gt;level_4_val_2 -->
<g id="edge28" class="edge"><title>level_3_val_2&#45;&gt;level_4_val_2</title>
<path fill="none" stroke="black" d="M310.982,-150.577C319.383,-140.709 330.221,-127.978 339.57,-116.997"/>
<polygon fill="black" stroke="black" points="342.24,-119.26 346.057,-109.377 336.91,-114.723 342.24,-119.26"/>
</g>
<!-- level_5_val_0 -->
<g id="node18" class="node"><title>level_5_val_0</title>
<ellipse fill="none" stroke="black" cx="27" cy="-19" rx="27" ry="19.0919"/>
<text text-anchor="middle" x="27" y="-15.9" font-family="Times Roman,serif" font-size="14.00">1,0</text>
</g>
<!-- level_4_val_0&#45;&gt;level_5_val_0 -->
<g id="edge31" class="edge"><title>level_4_val_0&#45;&gt;level_5_val_0</title>
<path fill="none" stroke="black" d="M83.7307,-77.3065C73.7753,-67.0746 60.6114,-53.545 49.4705,-42.0947"/>
<polygon fill="black" stroke="black" points="51.9777,-39.6525 42.4956,-34.926 46.9606,-44.534 51.9777,-39.6525"/>
</g>
<!-- level_5_val_1 -->
<g id="node19" class="node"><title>level_5_val_1</title>
<ellipse fill="none" stroke="black" cx="99" cy="-19" rx="27" ry="19.0919"/>
<text text-anchor="middle" x="99" y="-15.9" font-family="Times Roman,serif" font-size="14.00">1,1</text>
</g>
<!-- level_4_val_0&#45;&gt;level_5_val_1 -->
<g id="edge32" class="edge"><title>level_4_val_0&#45;&gt;level_5_val_1</title>
<path fill="none" stroke="black" d="M99,-73.9432C99,-66.1493 99,-56.9538 99,-48.3381"/>
<polygon fill="black" stroke="black" points="102.5,-48.2494 99,-38.2495 95.5001,-48.2495 102.5,-48.2494"/>
</g>
<!-- null_level_5_val_0 -->
<g id="node15" class="node"><title>null_level_5_val_0</title>
<ellipse fill="none" stroke="black" cx="171" cy="-19" rx="27" ry="19.0919"/>
<text text-anchor="middle" x="171" y="-15.9" font-family="Times Roman,serif" font-size="14.00">null</text>
</g>
<!-- level_4_val_1&#45;&gt;null_level_5_val_0 -->
<g id="edge35" class="edge"><title>level_4_val_1&#45;&gt;null_level_5_val_0</title>
<path fill="none" stroke="black" d="M171,-73.9432C171,-66.1493 171,-56.9538 171,-48.3381"/>
<polygon fill="black" stroke="black" points="174.5,-48.2494 171,-38.2495 167.5,-48.2495 174.5,-48.2494"/>
</g>
<!-- level_5_val_2 -->
<g id="node20" class="node"><title>level_5_val_2</title>
<ellipse fill="none" stroke="black" cx="243" cy="-19" rx="27" ry="19.0919"/>
<text text-anchor="middle" x="243" y="-15.9" font-family="Times Roman,serif" font-size="14.00">1,2</text>
</g>
<!-- level_4_val_1&#45;&gt;level_5_val_2 -->
<g id="edge36" class="edge"><title>level_4_val_1&#45;&gt;level_5_val_2</title>
<path fill="none" stroke="black" d="M186.269,-77.3065C196.225,-67.0746 209.389,-53.545 220.529,-42.0947"/>
<polygon fill="black" stroke="black" points="223.039,-44.534 227.504,-34.926 218.022,-39.6525 223.039,-44.534"/>
</g>
<!-- null_level_5_val_1 -->
<g id="node17" class="node"><title>null_level_5_val_1</title>
<ellipse fill="none" stroke="black" cx="351" cy="-19" rx="27" ry="19.0919"/>
<text text-anchor="middle" x="351" y="-15.9" font-family="Times Roman,serif" font-size="14.00">null</text>
</g>
<!-- level_4_val_2&#45;&gt;null_level_5_val_1 -->
<g id="edge39" class="edge"><title>level_4_val_2&#45;&gt;null_level_5_val_1</title>
<path fill="none" stroke="black" d="M357.682,-73.9432C356.727,-66.0884 355.599,-56.8101 354.544,-48.1363"/>
<polygon fill="black" stroke="black" points="357.992,-47.4965 353.31,-37.9923 351.043,-48.3417 357.992,-47.4965"/>
</g>
<!-- level_5_val_3 -->
<g id="node21" class="node"><title>level_5_val_3</title>
<ellipse fill="none" stroke="black" cx="423" cy="-19" rx="27" ry="19.0919"/>
<text text-anchor="middle" x="423" y="-15.9" font-family="Times Roman,serif" font-size="14.00">1,3</text>
</g>
<!-- level_4_val_2&#45;&gt;level_5_val_3 -->
<g id="edge40" class="edge"><title>level_4_val_2&#45;&gt;level_5_val_3</title>
<path fill="none" stroke="black" d="M373.982,-76.577C382.383,-66.7091 393.221,-53.9779 402.57,-42.9973"/>
<polygon fill="black" stroke="black" points="405.24,-45.2603 409.057,-35.3771 399.91,-40.7226 405.24,-45.2603"/>
</g>
</g>

<g transform="translate(0.000000,17.000000) scale(0.100000,-0.100000)"
fill="#000000" stroke="none">
<path d="M21 157 c-29 -35 -16 -97 20 -97 15 0 19 -5 15 -16 -3 -9 -6 -20 -6
-25 0 -5 -4 -9 -10 -9 -14 0 -12 27 3 33 6 3 2 6 -10 6 -30 1 -31 -35 -3 -44
28 -9 47 9 55 51 3 20 9 42 12 50 3 8 -1 14 -11 14 -9 0 -16 -8 -16 -19 0 -26
-15 -34 -30 -16 -13 16 -6 48 16 70 14 13 13 15 -4 15 -11 0 -25 -6 -31 -13z"/>
<path d="M80 150 c0 -13 5 -20 13 -17 6 2 12 10 12 17 0 7 -6 15 -12 18 -8 2
-13 -5 -13 -18z"/>
<path d="M347 164 c-13 -13 -7 -24 14 -24 11 0 19 5 17 12 -5 14 -22 21 -31
12z"/>
<path d="M103 85 c-9 -40 -8 -45 8 -45 13 0 19 9 21 33 2 24 7 31 21 29 10 -2
17 3 17 13 0 10 -9 15 -28 15 -26 0 -30 -5 -39 -45z"/>
<path d="M175 101 c-24 -48 -13 -59 64 -60 63 -1 69 1 79 25 15 31 15 64 1 64
-6 0 -8 -8 -5 -18 4 -10 -1 -27 -10 -38 -14 -18 -15 -17 -9 19 5 29 3 37 -9
37 -9 0 -18 -13 -22 -35 -3 -19 -10 -35 -14 -35 -4 0 -4 16 0 35 8 35 8 35
-26 35 -27 0 -36 -6 -49 -29z m47 -6 c-5 -28 -22 -44 -22 -21 0 21 11 46 20
46 4 0 5 -11 2 -25z"/>
<path d="M340 116 c0 -7 -3 -28 -6 -45 -6 -26 -3 -31 13 -31 10 0 25 6 32 12
11 10 13 10 7 1 -5 -9 3 -13 28 -13 25 0 36 4 36 15 0 8 -4 15 -10 15 -5 0
-10 -4 -10 -10 0 -5 -5 -10 -11 -10 -6 0 -2 12 9 28 36 51 36 52 -2 52 -25 0
-36 -4 -36 -15 0 -8 5 -15 10 -15 6 0 10 5 10 12 0 6 3 9 6 6 9 -10 -19 -46
-39 -52 -17 -4 -18 -1 -13 30 6 27 4 34 -9 34 -8 0 -15 -6 -15 -14z"/>
<path d="M472 118 c-7 -7 -12 -27 -12 -46 0 -30 2 -33 27 -30 17 2 32 12 39
27 7 13 18 28 26 33 10 8 9 8 -4 4 -12 -3 -18 0 -18 9 0 18 -41 20 -58 3z m29
-51 c-13 -13 -15 11 -4 40 7 16 8 15 11 -6 2 -13 -1 -28 -7 -34z"/>
</g>
</svg>
